<svg xmlns="http://www.w3.org/2000/svg" xmlns:xlink="http://www.w3.org/1999/xlink" version="1.1" x="0px" y="0px" viewBox="0 0 100 125" enable-background="new 0 0 100 100" xml:space="preserve"><path d="M79.175,31.681c-0.941-7.418-2.541-13.394-3.645-16.909C73.969,9.8,70.872,1.46,67.677,1.46s-6.291,8.34-7.853,13.312  c-1.305,4.152-3.301,11.735-4.084,21.08l-0.009-0.004c-0.463,0.918-4.52,9.074-4.52,12.542c0,1.57,0.711,2.495,1.309,2.993  c0.999,0.833,2.326,1.026,3.312,1.034c1.085,11.506,4.09,21.912,7.042,28.035c-0.948,1.917-5.168,10.696-6.117,16.884  c-0.088,0.568,0.159,1.136,0.633,1.462c0.475,0.326,1.095,0.351,1.594,0.065c0.04-0.022,4.003-2.26,8.382-2.26h0.312  c4.381,0,8.342,2.238,8.382,2.26c0.231,0.132,0.489,0.199,0.746,0.199c0.296,0,0.593-0.088,0.847-0.262  c0.475-0.326,0.722-0.895,0.635-1.464c-0.904-5.895-4.776-14.141-5.96-16.567c2.892-5.855,5.864-15.884,7.064-27.082  c0.642,0.036,1.296,0.56,2.099,1.275c0.624,0.555,1.367,1.216,2.243,1.216c0.245,0,0.499-0.051,0.765-0.17  c1.266-0.568,1.488-2.103,1.488-5.118C85.985,42.907,80.304,33.476,79.175,31.681z M54.438,49.079  c-0.068-0.058-0.23-0.193-0.23-0.689c0-0.917,0.502-2.576,1.201-4.42c0.007,1.826,0.069,3.643,0.184,5.441  C55.133,49.381,54.684,49.285,54.438,49.079z M69.319,80.069c-0.233,0.447-0.225,0.982,0.021,1.421  c0.331,0.662,3.791,7.644,5.37,13.482c-1.814-0.678-4.326-1.368-7.033-1.368h-0.312c-2.706,0-5.218,0.69-7.032,1.368  c1.367-5.051,4.141-10.958,5.078-12.888c0.234-0.125,0.436-0.312,0.577-0.546c0.271-0.448,0.289-1.005,0.046-1.47  C62.358,73.035,58.4,58.634,58.4,43.642c0-5.562,0.526-10.831,1.335-15.601c2.605,1.49,5.033,1.839,6.688,1.839  c1.283,0,2.104-0.202,2.186-0.223c0.803-0.206,1.285-1.022,1.079-1.824s-1.021-1.283-1.825-1.079  c-0.036,0.009-3.579,0.865-7.537-1.878c2.231-10.924,5.799-18.661,7.352-20.239c2.345,2.38,9.275,18.775,9.275,39.004  C76.952,58.633,72.996,73.034,69.319,80.069z M82.961,52.269c-0.803-0.673-1.931-1.452-3.296-1.568  c0.178-2.325,0.284-4.684,0.284-7.059c0-1.493-0.041-2.953-0.109-4.383c1.591,3.455,3.148,7.809,3.148,11.631  C82.988,51.452,82.978,51.905,82.961,52.269z M70.296,36.332c0.507,0.601,4.906,5.981,3.145,9.771  c-0.934,2.013-3.247,3.033-6.875,3.033c-3.616,0-5.916-1.016-6.836-3.019c-1.741-3.792,2.755-9.192,3.273-9.795  c0.539-0.627,1.484-0.698,2.111-0.16c0.628,0.538,0.699,1.484,0.162,2.113c-1.536,1.794-3.496,5.13-2.823,6.592  c0.378,0.82,1.839,1.272,4.112,1.272c2.291,0,3.768-0.461,4.157-1.298c0.684-1.468-1.218-4.792-2.718-6.577  c-0.533-0.633-0.451-1.578,0.18-2.111C68.818,35.619,69.761,35.699,70.296,36.332z M19.737,42.094  c0.052,0.062,0.105,0.123,0.168,0.177c0.022,0.02,0.051,0.026,0.074,0.044c2.664,2.271,6.109,3.649,9.876,3.649  c0.695,0,1.375-0.063,2.046-0.154c0.001,0,0.001,0,0.002,0c0.074,0,0.15-0.005,0.226-0.017c0.062-0.009,0.118-0.029,0.177-0.045  c4.348-0.707,8.08-3.247,10.374-6.811c0.029-0.038,0.065-0.068,0.091-0.109c0.044-0.07,0.076-0.143,0.107-0.216  c1.406-2.309,2.232-5.009,2.232-7.905c0-1.549-0.235-3.044-0.667-4.454c-0.004-0.013-0.004-0.026-0.008-0.039  c-0.001-0.005-0.004-0.009-0.006-0.013c-1.299-4.194-4.367-7.608-8.323-9.395c-0.049-0.027-0.094-0.059-0.146-0.082  c-0.024-0.01-0.048-0.014-0.072-0.023c-1.853-0.801-3.891-1.249-6.033-1.249c-0.718,0-2.052,0.103-3.004,0.222l-1.249-4.106  c0.48-0.6,0.959-1.168,1.432-1.713c3.752-1.515,6.996-2.321,9.396-2.321c0.828,0,1.499-0.67,1.499-1.498s-0.671-1.499-1.499-1.499  c-1.407,0-3.036,0.228-4.831,0.665l2.037-1.829c0.602-0.541,0.666-1.46,0.146-2.079c-0.52-0.619-1.438-0.713-2.072-0.215  c-0.29,0.227-3.271,2.605-6.667,6.444c-0.104,0.092-0.197,0.194-0.271,0.309c-4.745,5.44-10.171,13.669-10.171,22.875  C14.601,35.236,16.595,39.298,19.737,42.094z M17.698,32.207l8.891,0.001l-5.793,6.731C19.134,37.109,18.015,34.784,17.698,32.207z   M42.114,30.708c0,1.861-0.429,3.619-1.174,5.201l-7.521-4.729l8.494-2.619C42.038,29.259,42.114,29.974,42.114,30.708z   M23.06,40.903l5.801-6.741l1.324,8.789c-0.11,0.003-0.218,0.017-0.329,0.017C27.343,42.968,25.006,42.206,23.06,40.903z   M33.149,42.505l-1.325-8.789l7.526,4.732C37.772,40.381,35.615,41.815,33.149,42.505z M41.031,25.696l-8.495,2.619l3.555-8.142  C38.255,21.459,39.99,23.386,41.031,25.696z M29.855,18.45c1.214,0,2.386,0.184,3.493,0.514l-3.24,7.422l-2.371-7.796  C28.492,18.513,29.38,18.45,29.855,18.45z M27.835,29.211L17.668,29.21c0.396-5.39,2.84-10.458,5.712-14.65L27.835,29.211z   M21.917,22.302c0-0.584,0.475-1.06,1.06-1.06c0.587,0,1.061,0.476,1.061,1.06c0,0.586-0.474,1.06-1.061,1.06  C22.392,23.362,21.917,22.888,21.917,22.302z M67.071,19.683c0,0.585-0.475,1.06-1.062,1.06c-0.584,0-1.059-0.475-1.059-1.06  c0-0.584,0.475-1.061,1.059-1.061C66.597,18.622,67.071,19.098,67.071,19.683z M31.79,59.293c-7.769,0-15.06,7.448-17.73,18.113  c-0.035,0.144-0.05,0.292-0.043,0.438c0.004,0.085,0.012,0.176,0.017,0.264c-0.004,0.057-0.02,0.111-0.017,0.168  c0.002,0.041,0.008,0.142,0.02,0.293c-0.006,0.065-0.022,0.128-0.02,0.193c0.059,1.171,0.228,2.19,0.466,3.097  c1.329,7.541,5.563,17.379,15.343,17.379c4.096,0,8.01-2.083,11.021-5.865c4.22-5.298,6.172-13.324,4.748-19.516  C43.5,64.738,38.339,59.293,31.79,59.293z M17.427,81.023c-0.171-0.986-0.273-1.81-0.336-2.395c0.955-3.271,3.049-4.99,4.701-4.99  c1.514,0,2.717,1.459,3.303,4.005c0.41,1.787-0.193,4.215-1.434,5.772c-0.537,0.675-1.43,1.479-2.627,1.479  C18.915,84.895,17.905,82.795,17.427,81.023z M20.038,87.793c0.353,0.068,0.688,0.099,0.996,0.099h0.001  c1.866,0,3.63-0.926,4.97-2.608c1.82-2.284,2.627-5.624,2.01-8.311c-0.91-3.964-3.237-6.331-6.223-6.331  c-0.25,0-0.498,0.022-0.744,0.055c1.919-2.034,4.123-3.086,6.056-3.086c3.434,0,6.105,3.054,7.329,8.38  c0.851,3.698-0.337,8.519-2.887,11.722c-1.166,1.465-3.125,3.21-5.842,3.21C23.134,90.923,21.319,89.593,20.038,87.793z   M38.503,91.508c-1.721,2.16-4.621,4.734-8.678,4.734c-2.804,0-4.996-1.052-6.714-2.651c0.795,0.208,1.653,0.328,2.593,0.328  c3.051,0,5.958-1.542,8.187-4.34c3.08-3.869,4.504-9.733,3.463-14.26c-1.54-6.703-5.372-10.706-10.25-10.706  c-0.726,0-1.445,0.089-2.153,0.257c2.045-1.597,4.354-2.58,6.84-2.58c5.13,0,9.098,4.461,10.884,12.238  C43.907,79.893,42.191,86.874,38.503,91.508z"/><text x="0" y="115" fill="#000000" font-size="5px" font-weight="bold" font-family="'Helvetica Neue', Helvetica, Arial-Unicode, Arial, Sans-serif">Created by Tatina Vazest</text><text x="0" y="120" fill="#000000" font-size="5px" font-weight="bold" font-family="'Helvetica Neue', Helvetica, Arial-Unicode, Arial, Sans-serif">from the Noun Project</text></svg>