<svg xmlns="http://www.w3.org/2000/svg" xmlns:xlink="http://www.w3.org/1999/xlink" version="1.1" x="0px" y="0px" viewBox="0 0 32 40" style="enable-background:new 0 0 32 32;" xml:space="preserve"><style type="text/css">
	.st0{display:none;}
	.st1{display:inline;}
</style><g><path d="M11.7,8.5c0,0.6,0.4,1,1,1s1-0.4,1-1c0-0.8,0.7-1.5,1.5-1.5c0.6,0,1-0.4,1-1s-0.4-1-1-1C13.2,5,11.7,6.6,11.7,8.5z"/><path d="M28.1,2.6C27.6,2.4,27,2.6,26.7,3L23,10.4c-0.9-0.5-1.9-0.8-2.9-0.8c-2.1,0-3.9,1-4.9,2.6C14.3,11,13,10,11.4,9.7   c-0.2-0.4-0.3-0.9-0.3-1.3c0-2.2,1.8-3.9,3.9-3.9c1.9,0,3.5,1.3,3.8,3.2c0.1,0.5,0.6,0.9,1.2,0.8c0.5-0.1,0.9-0.6,0.8-1.2   c-0.5-2.8-3-4.8-5.8-4.8c-3.3,0-5.9,2.7-5.9,5.9c0,0.4,0,0.8,0.1,1.2c-2.6,0.4-4.6,2.4-5,4.9c-0.5,0.1-0.8,0.5-0.8,1   c0,3.6,3.7,6.7,8.8,7.3c0,1.7-1.1,3.3-2.7,3.9l-1.8,0.8c-0.4,0.2-0.7,0.7-0.6,1.1c0.1,0.5,0.5,0.8,1,0.8h14c0.5,0,0.9-0.3,1-0.8   c0.1-0.5-0.1-0.9-0.6-1.1l-1.8-0.8c-1.6-0.7-2.6-2.2-2.7-3.9c3.5-0.5,6.5-2.1,7.9-4.4c0.3-0.5,0.1-1.1-0.3-1.4   c-0.5-0.3-1.1-0.1-1.4,0.3c-1.1,1.8-3.6,3.1-6.5,3.4C16.7,21,16,21.8,16,22.7c0,1.9,0.8,3.6,2.1,4.8h-6c1.3-1.2,2.1-2.9,2.1-4.8   c0-0.9-0.7-1.7-1.7-1.9c-3.5-0.4-6.3-2.2-6.9-4.3h20.1c0.6,0,1-0.4,1-1c0-0.5-0.3-0.9-0.8-1c-0.2-1.1-0.7-2.1-1.4-2.9L28.5,4   C28.8,3.5,28.6,2.9,28.1,2.6z M20.1,11.6c1.8,0,3.4,1.3,3.8,3h-7.6C16.7,12.8,18.2,11.6,20.1,11.6z M10.2,11.6c1.8,0,3.4,1.3,3.8,3   H6.4C6.8,12.8,8.4,11.6,10.2,11.6z"/></g><text x="0" y="47" fill="#000000" font-size="5px" font-weight="bold" font-family="'Helvetica Neue', Helvetica, Arial-Unicode, Arial, Sans-serif">Created by Bayu Apriansyah Kandhihawa</text><text x="0" y="52" fill="#000000" font-size="5px" font-weight="bold" font-family="'Helvetica Neue', Helvetica, Arial-Unicode, Arial, Sans-serif">from the Noun Project</text></svg>