<svg xmlns="http://www.w3.org/2000/svg" xmlns:xlink="http://www.w3.org/1999/xlink" xml:space="preserve" version="1.1" style="shape-rendering:geometricPrecision;text-rendering:geometricPrecision;image-rendering:optimizeQuality;" viewBox="0 0 847 1058.75" x="0px" y="0px" fill-rule="evenodd" clip-rule="evenodd"><defs><style type="text/css">
   
    .fil0 {fill:black;fill-rule:nonzero}
   
  </style></defs><g><g><path class="fil0" d="M234 680l12 3 124 0 212 -1 12 -2 -360 0zm97 -459l-23 -19c-7,-6 -9,-16 -3,-24l1 0 0 -1 0 0c4,-4 5,-9 5,-13 0,-3 -3,-8 -8,-12l0 0 0 0 0 0c-4,-3 -9,-5 -14,-4 -5,0 -9,3 -12,7 -3,3 -4,7 -5,11 0,4 2,8 4,11 6,8 4,18 -3,24 -6,4 -13,4 -18,1 -4,-1 -8,-1 -11,-1 -4,1 -8,4 -11,7l0 0 0 0c-3,4 -4,9 -4,13 1,5 3,9 7,13l0 0 0 0c4,3 9,4 14,4l0 0c5,-1 9,-3 12,-7 1,-1 2,-2 2,-2 6,-6 16,-6 22,-1l0 0 0 0 17 13c9,-7 18,-14 28,-20zm-54 43l-1 -1c-7,5 -14,7 -22,8l0 0 0 0c-14,2 -27,-2 -39,-11l0 0c-11,-9 -18,-22 -19,-35 -2,-13 2,-27 11,-38l0 0 0 0c8,-10 18,-16 29,-18 1,-1 2,-1 3,-1l0 -3c0,-11 4,-22 11,-32 10,-11 22,-17 36,-19 13,-1 27,3 38,12l0 0 0 0 0 0 1 1c12,9 19,21 20,34 0,8 -1,16 -4,24l21 17c37,-20 77,-33 117,-36 1,0 2,0 3,0 82,6 162,54 222,118 34,35 62,76 81,118 19,42 29,85 26,123 -2,36 -15,68 -41,93 -3,3 -8,5 -13,5l-553 0 0 0c-5,0 -9,-1 -12,-5 -27,-25 -41,-57 -43,-92 -3,-32 3,-68 18,-104l-6 -3c-9,-5 -17,-9 -21,-13 -8,-6 -12,-13 -9,-20l-15 -12c-7,4 -15,7 -23,8 -13,1 -27,-2 -38,-11l0 0 0 0 -1 0 0 -1c-11,-8 -17,-21 -19,-34l0 0c-1,-14 2,-27 11,-38l0 0 1 -1c7,-9 17,-15 27,-17l1 -1c1,0 2,0 3,0l0 -3c0,-11 4,-23 12,-32 9,-11 22,-18 35,-19 13,-1 27,2 38,11l0 0 1 0 0 1 1 0c11,10 18,22 19,35 1,8 -1,16 -4,24 10,8 29,24 40,31 16,-22 36,-44 57,-63zm-106 68l-24 -19c-7,-6 -8,-17 -2,-24l0 -1 0 0 0 0c4,-5 6,-9 6,-13 -1,-4 -3,-8 -8,-12l-1 0 0 0 0 0c-4,-3 -9,-5 -13,-4 -5,0 -10,2 -13,6 -3,4 -4,8 -4,12 0,4 1,8 4,11 5,7 4,18 -4,24 -5,3 -12,4 -17,1 -4,-1 -8,-2 -12,-1l0 0c-4,1 -8,3 -10,7l0 0 0 0c-3,4 -5,8 -4,13l0 0c0,5 3,9 6,12l1 0 0 0 0 0c4,4 9,5 13,4 5,0 10,-3 13,-7l0 0c6,-7 17,-8 24,-2l0 0 24 19 21 -26zm-69 9l0 0 0 0zm95 11l-26 34 6 4c6,3 12,7 19,11l1 0 0 0c31,19 70,47 76,81 2,14 24,35 53,51 17,9 37,17 56,19 19,2 37,0 53,-9 19,-11 36,-33 46,-70 6,-23 8,-41 6,-56 -4,-23 -16,-38 -33,-47 -19,-11 -43,-15 -68,-16 -40,-1 -79,7 -97,14 -27,10 -51,5 -69,-3 -2,0 -3,-1 -4,-1 -7,-4 -14,-8 -19,-12zm56 -12c7,0 16,0 24,-4 20,-7 65,-17 110,-15 30,1 59,6 83,19 26,15 45,37 50,72 3,20 1,43 -6,70 -13,47 -36,75 -63,91 -23,13 -48,16 -73,13 -24,-3 -48,-12 -69,-24 -37,-21 -65,-51 -69,-74 -3,-17 -23,-34 -44,-48 -11,30 -16,58 -14,83 2,25 11,48 29,66l539 0c17,-18 26,-41 28,-66 2,-33 -7,-70 -23,-107 -18,-38 -44,-76 -75,-109 -55,-58 -127,-101 -200,-107 -38,3 -76,16 -111,37l-1 0c-5,3 -10,6 -15,9 -13,9 -26,19 -39,29l-1 1c-22,19 -43,41 -60,64zm480 115c2,10 -3,19 -12,21 -9,2 -18,-4 -21,-13 -27,-113 -132,-178 -132,-178 -8,-5 -10,-15 -6,-23 5,-8 16,-11 24,-6 0,0 116,72 147,199zm-505 261l0 -3 -176 -33c-9,-1 -15,-8 -15,-17 0,-9 7,-17 17,-17l737 0 0 0c8,0 15,6 17,15 1,9 -5,18 -14,19l-194 34 0 2c0,9 -7,17 -17,17l-338 0c-10,0 -17,-8 -17,-17z"/></g></g><text x="0" y="862" fill="#000000" font-size="5px" font-weight="bold" font-family="'Helvetica Neue', Helvetica, Arial-Unicode, Arial, Sans-serif">Created by Arif Arif</text><text x="0" y="867" fill="#000000" font-size="5px" font-weight="bold" font-family="'Helvetica Neue', Helvetica, Arial-Unicode, Arial, Sans-serif">from the Noun Project</text></svg>