<svg xmlns="http://www.w3.org/2000/svg" xmlns:xlink="http://www.w3.org/1999/xlink" version="1.1" x="0px" y="0px" viewBox="0 0 144.083 180" enable-background="new 0 0 144.083 144" xml:space="preserve"><path d="M115.661,89.309c-2.109-2.113-4.918-3.276-7.904-3.276c-1.992,0-3.906,0.518-5.586,1.49l-3.807-3.808  c2.316-5.058,5.234-16.072,0.568-27.356c-1.744-4.225-4.412-8.149-7.93-11.668L75.018,28.708c-0.008-0.008-0.014-0.016-0.021-0.023  c-0.006-0.006-0.012-0.011-0.018-0.017l-0.191-0.19l-0.01,0.011c-2.307-2.187-5.498-3.349-9.269-3.349  c-8.041,0-18.278,5.241-26.718,13.68C25.799,51.813,21.348,67.716,28.657,75.024c0.404,0.404,0.849,0.764,1.31,1.101l14.801,14.802  c8.376,8.378,17.502,10.417,24.398,10.417c0.903,0,1.768-0.035,2.586-0.096c4.873-0.357,9.283-1.714,12.039-2.96l3.811,3.81  c-2.461,4.273-1.867,9.838,1.779,13.487c2.111,2.112,4.92,3.275,7.908,3.275c2.986,0,5.795-1.162,7.906-3.274  c1.953-1.956,3.074-4.547,3.24-7.226c2.68-0.165,5.271-1.286,7.229-3.242c2.109-2.111,3.271-4.919,3.271-7.906  C118.936,94.226,117.772,91.418,115.661,89.309z M33.856,71.53l-1.061-1.061l-0.08,0.08c-3.852-4.356-0.651-16.519,10.317-27.488  c7.244-7.242,16.065-11.922,22.476-11.922c2.29,0,4.051,0.6,5.238,1.78l0.016,0.017c2.047,2.057,2.342,6.008,0.807,10.846  c-1.771,5.586-5.66,11.576-10.949,16.865C53.377,67.891,44.556,72.57,38.147,72.57C36.402,72.57,34.968,72.219,33.856,71.53z   M82.438,92.256c-1.402,0.732-18.764,9.094-33.428-5.571l-8.293-8.294c7.576-0.953,16.581-5.937,24.146-13.501  c5.957-5.956,10.371-12.808,12.427-19.294c0.555-1.749,0.922-3.428,1.109-5.022l8.361,8.359c2.955,2.957,5.186,6.226,6.627,9.717  c4.898,11.849-0.467,22.613-1.053,23.709L82.438,92.256z M111.42,100.876c-1.41,1.411-3.541,1.885-5.426,1.2  c-1.094-0.396-2.318-0.123-3.141,0.699s-1.096,2.046-0.701,3.141c0.68,1.886,0.209,4.018-1.201,5.429  c-0.977,0.978-2.277,1.516-3.662,1.516s-2.686-0.539-3.664-1.518c-2.004-2.004-2.018-5.257-0.045-7.279  c0.027-0.023,0.053-0.048,0.07-0.064c0.584-0.558,0.918-1.327,0.926-2.135c0.01-0.807-0.307-1.584-0.879-2.154l-5.115-5.115  l6.088-6.088l5.115,5.115c0.57,0.571,1.309,0.889,2.152,0.879c0.807-0.009,1.576-0.342,2.135-0.924  c0.014-0.015,0.037-0.04,0.059-0.064c0.975-0.955,2.26-1.48,3.625-1.48c1.383,0,2.684,0.539,3.662,1.519  c0.979,0.978,1.518,2.278,1.518,3.663C112.936,98.598,112.397,99.898,111.42,100.876z"/><rect x="48.515" y="44.8" transform="matrix(-0.7071 -0.7071 0.7071 -0.7071 51.4955 124.416)" width="5.999" height="13.487"/><text x="0" y="159" fill="#000000" font-size="5px" font-weight="bold" font-family="'Helvetica Neue', Helvetica, Arial-Unicode, Arial, Sans-serif">Created by Chanut is Industries</text><text x="0" y="164" fill="#000000" font-size="5px" font-weight="bold" font-family="'Helvetica Neue', Helvetica, Arial-Unicode, Arial, Sans-serif">from the Noun Project</text></svg>