<svg xmlns="http://www.w3.org/2000/svg" xmlns:xlink="http://www.w3.org/1999/xlink" version="1.1" x="0px" y="0px" viewBox="0 0 100 125" style="enable-background:new 0 0 100 100;" xml:space="preserve"><g><path d="M38.1,86.5c3.7,0,7.2-1.9,9.2-5l6.3-9.6c4.7,2.1,9.4,3.2,13.8,3.2c5.5,0,10.3-1.8,13.6-5.1c2.2-2.2,3.7-5,4.5-8.3   c0.6-2.5,0.8-5.3,0.4-8.2c-0.2-1.4-0.4-2.9-0.8-4.3l0-0.1c-0.2-0.7-0.4-1.5-0.6-2.2l0,0l0-0.1c-0.2-0.7-0.5-1.4-0.7-2.1l0,0l0-0.1   c-0.3-0.7-0.6-1.4-0.9-2.1l-0.1-0.2l0-0.1c-0.3-0.7-0.6-1.3-0.9-1.9l0-0.1l-0.1-0.1c-0.3-0.7-0.7-1.3-1.1-2l-0.1-0.2l-0.1-0.1   c-0.4-0.6-0.8-1.2-1.1-1.8l0-0.1l-0.1-0.1c-0.4-0.6-0.8-1.2-1.3-1.9c-0.1-0.1-0.2-0.2-0.3-0.4l-0.1-0.1c-0.5-0.6-0.9-1.2-1.4-1.8   l0,0L76,31.4c-0.5-0.6-1-1.2-1.6-1.8c-0.1-0.1-0.3-0.3-0.4-0.4c-0.6-0.7-1.2-1.3-1.7-1.8c-8.7-8.7-19.5-13.9-29.1-13.9   c-5.5,0-10.3,1.8-13.6,5.1c-0.3,0.3-0.5,0.5-0.8,0.9C23.3,25.9,23,36.3,28.1,47l-9.3,6c-0.3,0.2-0.5,0.4-0.9,0.6   c-0.1,0.1-0.2,0.2-0.3,0.3c-0.1,0.1-0.2,0.2-0.3,0.3l0,0c-2.1,2-3.4,4.9-3.4,7.8c0,3,1.1,5.8,3.2,7.9l13.3,13.3   C32.5,85.4,35.2,86.5,38.1,86.5z M30.6,20.9c0.2-0.2,0.4-0.4,0.6-0.7c8.5-8.5,26.2-4.6,39.5,8.7c9.9,9.9,14.9,22.5,12.7,32.1   c-0.2,0.2-0.4,0.4-0.6,0.7c-3.8,3.8-9.5,5.1-15.7,4.2c0.2-1.8-0.2-4.3-1.8-7.7c-2.1-4.3-5.7-9.2-10.1-13.7   c-7.3-7.3-15.3-12-20.4-12c-1.6,0-2.7,0.4-3.4,0.9C30,29,29.7,24.7,30.6,20.9z M34.7,34.4c2.5,0,5.9,1.3,9.6,3.7L33,45.4   c-2.4-4.5-3-8.3-1.3-10.1C32.5,34.7,33.4,34.4,34.7,34.4z M64.2,67.8c-0.7,0.7-1.7,1-2.9,1c-1.7,0-3.8-0.6-6.2-1.8l7-10.8   C65.2,61.5,66.2,65.9,64.2,67.8z M30.5,34.1C30.5,34.1,30.5,34.1,30.5,34.1c-1.5,1.5-2.7,4.6,0.3,10.9c0.2,0.5,0.5,0.9,0.7,1.4   L30.6,47c-4.6-9.1-5.3-18.4-1.3-24.5C28.9,26.1,29.3,30.1,30.5,34.1z M44.7,38.9c2.9,1.9,6,4.4,8.8,7.2c2.8,2.8,5.3,5.8,7.2,8.7   L44.4,73.7c-1.7,2-4.2,3.1-6.9,3c-2.6-0.1-5.1-1.3-6.6-3.4l-11.4-15c-0.4-0.6-0.8-1.2-1.1-1.9c0.5-0.5,1-1,1.6-1.4L44.7,38.9z    M54.2,68.6c2.7,1.3,5.2,2.1,7.2,2.1c2.2,0,3.5-0.8,4.2-1.5c0.5-0.5,1-1.3,1.3-2.3c1.3,0.2,2.6,0.3,3.9,0.3c4.7,0,9-1.4,12.1-4.3   c-0.7,2.1-1.9,4-3.5,5.6c-5.8,5.8-15.8,5.8-25.8,1.1L54.2,68.6z M16.2,61.3c0.2-1.6,0.7-3,1.6-4.2c0.3,0.6,0.6,1.2,1,1.6l11.4,15   c1.8,2.3,4.4,3.7,7.3,3.8c0.1,0,0.2,0,0.3,0c2.8,0,5.4-1.2,7.2-3.3l16.1-18.6c0,0.1,0.1,0.2,0.1,0.2L45.4,80.3   c-1.4,2.2-3.8,3.6-6.4,3.9c-2.6,0.3-5.2-0.6-7.1-2.5L18.7,68.4C16.8,66.5,15.9,64,16.2,61.3z"/></g><text x="0" y="115" fill="#000000" font-size="5px" font-weight="bold" font-family="'Helvetica Neue', Helvetica, Arial-Unicode, Arial, Sans-serif">Created by mikicon</text><text x="0" y="120" fill="#000000" font-size="5px" font-weight="bold" font-family="'Helvetica Neue', Helvetica, Arial-Unicode, Arial, Sans-serif">from the Noun Project</text></svg>