<svg xmlns="http://www.w3.org/2000/svg" xmlns:xlink="http://www.w3.org/1999/xlink" version="1.1" x="0px" y="0px" viewBox="0 0 52 65" style="enable-background:new 0 0 52 52;" xml:space="preserve"><g><path d="M26,0C11.7,0,0,11.7,0,26s11.7,26,26,26s26-11.7,26-26S40.3,0,26,0z M26,50.2C12.7,50.2,1.8,39.3,1.8,26   C1.8,12.7,12.7,1.8,26,1.8c13.3,0,24.2,10.8,24.2,24.2C50.2,39.3,39.3,50.2,26,50.2z"/><path d="M45.5,20.6c-1.1-1.9-1.3-2.3-1.9-4.6c-1.4-5-2.5-6.1-7.5-7.5c-2.3-0.6-2.7-0.8-4.6-1.9c-4.5-2.6-6.3-2.6-10.8,0   c-1.9,1.1-2.3,1.3-4.6,1.9c-5,1.4-6.1,2.5-7.5,7.5c-0.6,2.3-0.8,2.7-1.9,4.6c-2.6,4.5-2.6,6.3,0,10.8c1.1,1.9,1.3,2.4,1.9,4.6   c1.4,5,2.5,6.1,7.5,7.5c2.3,0.6,2.7,0.8,4.6,1.9c4.5,2.6,6.3,2.6,10.8,0c1.9-1.1,2.3-1.3,4.6-1.9c5-1.4,6.1-2.5,7.5-7.5   c0.6-2.3,0.8-2.7,1.9-4.6C48.1,26.9,48.1,25.1,45.5,20.6z M43.9,30.5c-1.2,2.1-1.4,2.6-2.1,5.1c-1.2,4.4-1.9,5-6.2,6.2   c-2.4,0.7-3,0.9-5.1,2.1c-4,2.3-5.1,2.3-9,0c-2.1-1.2-2.6-1.4-5.1-2.1c-4.4-1.2-5-1.9-6.2-6.2c-0.7-2.4-0.9-3-2.1-5.1   c-2.3-3.9-2.3-5.1,0-9c1.2-2.1,1.4-2.6,2.1-5.1c1.2-4.4,1.9-5,6.2-6.2c2.4-0.7,3-0.9,5.1-2.1c3.9-2.3,5.1-2.3,9,0   c2.1,1.2,2.6,1.4,5.1,2.1c4.4,1.2,5,1.9,6.2,6.2c0.7,2.4,0.9,3,2.1,5.1C46.2,25.4,46.2,26.5,43.9,30.5z"/><path d="M34.9,31c-2.6,0-4.7,2.1-4.7,4.7s2.1,4.7,4.7,4.7s4.7-2.1,4.7-4.7S37.5,31,34.9,31z M34.9,38.6c-1.6,0-2.9-1.3-2.9-2.9   c0-1.6,1.3-2.9,2.9-2.9c1.6,0,2.9,1.3,2.9,2.9C37.8,37.3,36.5,38.6,34.9,38.6z"/><path d="M26,18.4c2.6,0,4.7-2.1,4.7-4.7S28.6,9,26,9s-4.7,2.1-4.7,4.7S23.4,18.4,26,18.4z M26,10.8c1.6,0,2.9,1.3,2.9,2.9   c0,1.6-1.3,2.9-2.9,2.9c-1.6,0-2.9-1.3-2.9-2.9C23.1,12.1,24.4,10.8,26,10.8z"/><path d="M19.9,34.4c-1.6,0-3,1.3-3,3c0,1.6,1.3,3,3,3s3-1.3,3-3C22.9,35.8,21.6,34.4,19.9,34.4z M19.9,38.6c-0.6,0-1.2-0.5-1.2-1.2   s0.5-1.2,1.2-1.2c0.6,0,1.2,0.5,1.2,1.2S20.6,38.6,19.9,38.6z"/><path d="M37.5,23c-1.6,0-3,1.3-3,3s1.3,3,3,3c1.6,0,3-1.3,3-3S39.2,23,37.5,23z M37.5,27.2c-0.6,0-1.2-0.5-1.2-1.2   c0-0.6,0.5-1.2,1.2-1.2c0.6,0,1.2,0.5,1.2,1.2C38.7,26.6,38.2,27.2,37.5,27.2z"/><path d="M27.4,21.6c-1.6,0-3,1.3-3,3s1.3,3,3,3c1.6,0,3-1.3,3-3S29.1,21.6,27.4,21.6z M27.4,25.8c-0.6,0-1.2-0.5-1.2-1.2   c0-0.6,0.5-1.2,1.2-1.2c0.6,0,1.2,0.5,1.2,1.2C28.6,25.3,28.1,25.8,27.4,25.8z"/><path d="M17.2,26c0-1.9-1.5-3.4-3.4-3.4s-3.4,1.5-3.4,3.4c0,1.9,1.5,3.4,3.4,3.4S17.2,27.9,17.2,26z M12.2,26   c0-0.9,0.7-1.6,1.6-1.6c0.9,0,1.6,0.7,1.6,1.6s-0.7,1.6-1.6,1.6C12.9,27.6,12.2,26.9,12.2,26z"/><path d="M26.9,30.5c0-0.5-0.4-0.9-0.9-0.9c-2.1,0-3.8,1.7-3.8,3.8c0,0.5,0.4,0.9,0.9,0.9s0.9-0.4,0.9-0.9c0-1.1,0.9-2,2-2   C26.5,31.4,26.9,31,26.9,30.5z"/><path d="M15.5,18.4l1.8-0.9c0.4-0.2,0.6-0.8,0.4-1.2c-0.2-0.4-0.8-0.6-1.2-0.4l-1.8,0.9C14.2,17,14,17.5,14.3,18   C14.5,18.4,15,18.6,15.5,18.4z"/><path d="M15.6,32.1L13.8,33c-0.4,0.2-0.6,0.8-0.4,1.2c0.2,0.5,0.8,0.6,1.2,0.4l1.8-0.9c0.4-0.2,0.6-0.8,0.4-1.2   C16.6,32,16,31.9,15.6,32.1z"/><path d="M27.7,40l-1.9-0.7c-0.5-0.2-1,0.1-1.2,0.5c-0.2,0.5,0.1,1,0.5,1.2l1.9,0.7c0.5,0.2,1-0.1,1.2-0.5   C28.5,40.7,28.2,40.2,27.7,40z"/><path d="M20,24l1.9,0.7c0.5,0.2,1-0.1,1.2-0.5c0.2-0.5-0.1-1-0.5-1.2l-1.9-0.7c-0.5-0.2-1,0.1-1.2,0.5C19.3,23.3,19.6,23.8,20,24z"/><path d="M36.3,18l1.9,0.7c0.5,0.2,1-0.1,1.2-0.5c0.2-0.5-0.1-1-0.5-1.2l-1.9-0.7c-0.5-0.2-1,0.1-1.2,0.5   C35.6,17.3,35.8,17.8,36.3,18z"/></g><text x="0" y="67" fill="#000000" font-size="5px" font-weight="bold" font-family="'Helvetica Neue', Helvetica, Arial-Unicode, Arial, Sans-serif">Created by Vectors Market</text><text x="0" y="72" fill="#000000" font-size="5px" font-weight="bold" font-family="'Helvetica Neue', Helvetica, Arial-Unicode, Arial, Sans-serif">from the Noun Project</text></svg>