<svg xmlns="http://www.w3.org/2000/svg" xmlns:xlink="http://www.w3.org/1999/xlink" xml:space="preserve" version="1.1" style="shape-rendering:geometricPrecision;text-rendering:geometricPrecision;image-rendering:optimizeQuality;" viewBox="0 0 847 1058.75" x="0px" y="0px" fill-rule="evenodd" clip-rule="evenodd"><defs><style type="text/css">
   
    .fil0 {fill:black;fill-rule:nonzero}
   
  </style></defs><g><g><path class="fil0" d="M351 180c6,-7 17,-6 24,0 6,7 6,18 -1,24l-26 26c-7,7 -17,7 -24,0 -7,-7 -6,-17 0,-24l27 -26zm148 0c6,-7 17,-6 24,0 6,7 6,18 -1,24l-26 26c-7,7 -17,7 -24,0 -6,-7 -6,-17 0,-24l27 -26zm148 0c7,-7 17,-6 24,0 6,7 6,18 0,24l-27 26c-6,7 -17,7 -24,0 -6,-7 -6,-17 0,-24l27 -26zm-444 0c6,-7 17,-6 23,0 7,7 7,18 0,24l-26 26c-7,7 -18,7 -24,0 -7,-7 -7,-17 0,-24l27 -26zm394 -64c6,7 6,18 0,24 -7,7 -17,7 -24,1l-27 -27c-6,-6 -6,-17 0,-23 7,-7 17,-7 24,-1l27 26zm-149 0c7,7 7,18 1,24 -7,7 -18,7 -24,1l-27 -27c-6,-6 -6,-17 0,-23 7,-7 17,-7 24,-1l26 26zm-148 1c7,6 7,17 0,23 -6,7 -17,7 -24,0l-26 -26c-7,-6 -7,-17 0,-24 7,-6 17,-6 24,0l26 27zm148 313l0 -31 -362 0 0 31 362 0zm34 -31l0 31 135 0 0 -31 -135 0zm169 0l0 31 110 0 0 -31 -110 0zm110 65l-127 0 -169 0 -379 0 0 23 156 0c6,0 12,3 15,9l19 28 19 -30c4,-4 9,-7 14,-7l0 0 452 0 0 -23zm34 137l0 52c1,1 2,2 3,3 8,9 14,19 19,30 4,12 7,24 7,37 0,28 -12,54 -30,72 -19,18 -45,30 -73,30l-596 0c-28,0 -53,-12 -72,-30 -19,-18 -30,-44 -30,-72 0,-13 2,-25 7,-37 5,-12 12,-22 20,-31 1,-1 1,-2 2,-2l0 -52c-4,-3 -7,-6 -11,-9 -11,-11 -18,-27 -18,-44 0,-16 7,-32 18,-43l1 -1c3,-3 6,-5 10,-8l0 -49 0 -48 -6 0 0 0c-8,0 -15,-6 -17,-14 -3,-19 -5,-38 -5,-56 0,-73 27,-141 72,-194 46,-54 109,-93 183,-107 20,-4 41,-6 63,-6l163 0c21,0 42,2 63,6 73,14 137,53 182,107 46,53 73,121 73,194 0,18 -2,36 -5,55 -2,8 -9,15 -17,15l-6 0 0 48 0 49c4,3 7,6 10,9 12,11 19,26 19,43 0,17 -7,33 -19,44 -3,3 -6,6 -10,9zm-34 48l0 -39 -675 0 0 39 441 0c7,0 12,4 15,9l37 58 44 -60c3,-4 9,-7 14,-7l0 0 124 0zm11 -126l-1 -1c-3,-1 -6,-1 -9,-1l-444 0 -28 42c-2,2 -3,3 -5,5 -8,5 -18,3 -23,-5l-29 -42 -148 0c-3,0 -6,0 -9,1l-2 1c-3,1 -6,3 -9,6l0 0 0 0c-5,5 -8,12 -8,19 0,8 3,15 8,20 5,5 12,8 20,8l677 0c7,0 15,-3 20,-8 5,-5 8,-12 8,-20 0,-7 -3,-14 -8,-19 -3,-3 -6,-5 -10,-6zm-254 160l-448 0c-3,5 -6,10 -9,16 -3,7 -4,16 -4,24 0,19 7,36 20,48 12,12 29,20 48,20l596 0c19,0 36,-8 49,-20 12,-12 20,-29 20,-48 0,-8 -2,-17 -5,-24 -2,-6 -5,-11 -9,-16l-131 0 -53 72 0 0c-1,2 -3,3 -4,4 -8,5 -19,3 -24,-5l-46 -71zm280 -27c2,3 3,6 3,10l-3 -10zm-12 -291c2,-12 3,-24 3,-36 0,-65 -24,-125 -64,-173 -41,-47 -98,-82 -164,-95 -18,-3 -37,-5 -56,-5l-163 0c-20,0 -39,2 -57,5 -66,13 -122,48 -163,95 -40,48 -64,108 -64,173 0,12 1,24 2,36l726 0z"/></g></g><text x="0" y="862" fill="#000000" font-size="5px" font-weight="bold" font-family="'Helvetica Neue', Helvetica, Arial-Unicode, Arial, Sans-serif">Created by Arif Arif</text><text x="0" y="867" fill="#000000" font-size="5px" font-weight="bold" font-family="'Helvetica Neue', Helvetica, Arial-Unicode, Arial, Sans-serif">from the Noun Project</text></svg>