<svg xmlns="http://www.w3.org/2000/svg" xmlns:xlink="http://www.w3.org/1999/xlink" version="1.1" x="0px" y="0px" viewBox="1 -1 100 125" style="enable-background:new 1 -1 100 100;" xml:space="preserve"><path d="M83.7,8C69.4,7,69.1,7.2,68.5,7.6c-0.6,0.4-0.7,0.5-4.3,9.4c-4.1-0.5-8.3-0.8-12.5-0.8c0,0,0,0-0.1,0  c-4.1,0-8.2,0.3-12.3,0.8c-2.6-5.7-9.2-8.4-15.1-6.1c-6.1,2.4-9.2,9.3-6.9,15.4c1.7,4.5,5.9,7.5,10.7,7.6l7.6,51.8  c0.1,1.8,2.3,4.9,15.9,4.9c13.6,0,15.8-3.1,15.9-4.8l9.2-62c0.1-0.3,0.1-0.6,0.1-0.9c0-2.5-2.8-4.2-8.7-5.4c0.5-1.1,0.9-2.2,1.2-3.1  c0.6-1.5,1-2.6,1.3-3.4c2.5,0.1,8.6,0.4,12.6,0.8c1,0.2,2-0.5,2.2-1.5c0-0.1,0-0.3,0-0.4C85.5,9,84.7,8.1,83.7,8z M63.7,85.1  c-0.9,0.5-4.9,1.7-12,1.7c-7.1,0-11.1-1.2-12-1.6l-4.5-30.3c5.3,1.7,14.6,1.8,16.6,1.8c1.2,0,10.7-0.1,16.3-1.7L63.7,85.1z   M26.6,23.2l1,6.9c-4.1-0.4-7.3-3.8-7.3-8c0-4.4,3.6-8,8-8s8,3.6,8,8c0,0.9-0.1,1.7-0.4,2.5c-3.5-0.7-5.1-1.5-5.6-1.8l0,0  c-0.2-1-1.1-1.7-2.2-1.6C27.3,21.4,26.6,22.2,26.6,23.2z M40.3,20.9c3.8-0.4,7.5-0.7,11.3-0.6h0c3.7,0,7.4,0.2,11.1,0.6l-1.8,4.7  c-3.1,0.3-6.2,0.4-9.3,0.4c-3.9,0-7.8-0.2-11.7-0.7c0.3-1,0.4-2,0.4-3.1C40.4,21.7,40.3,21.3,40.3,20.9z M65.4,24.9l1.4-3.5  c3,0.6,4.8,1.2,5.6,1.7C71.4,23.6,69.1,24.3,65.4,24.9z M35.6,50.9c2.2-0.7,7.7-1.7,16.1-1.7h0.1l-0.4,0.9c-0.3,0.8-0.1,1.6,0.5,2.2  v0.5c-0.1,0-0.2,0-0.2,0C42.8,52.8,37.6,51.6,35.6,50.9z M59.4,29.6l-6,15.9h-1.6c-2.2,0-12.6,0.1-17.7,2.3l-2.3-15.7  c0-0.1,0-0.2,0-0.3l-0.6-4.4c5.1,1.8,13.9,2.5,20.5,2.5C53.5,29.8,56.3,29.8,59.4,29.6z M55.2,51.6l0.8-2.2  c6.1,0.3,9.9,1.1,11.7,1.7c-2.1,0.6-6.9,1.5-13.7,1.6C54.5,52.6,54.9,52.2,55.2,51.6z M72.3,27.4l-3.1,20.1c-3-1.2-7.7-1.7-11.7-1.9  l6.3-16.4C67.3,28.7,70.2,28.1,72.3,27.4z"/><text x="1" y="114" fill="#000000" font-size="5px" font-weight="bold" font-family="'Helvetica Neue', Helvetica, Arial-Unicode, Arial, Sans-serif">Created by Fantastic</text><text x="1" y="119" fill="#000000" font-size="5px" font-weight="bold" font-family="'Helvetica Neue', Helvetica, Arial-Unicode, Arial, Sans-serif">from the Noun Project</text></svg>