<svg xmlns="http://www.w3.org/2000/svg" xmlns:xlink="http://www.w3.org/1999/xlink" version="1.1" x="0px" y="0px" viewBox="0 0 64 80" enable-background="new 0 0 64 64" xml:space="preserve"><g display="none"><g display="inline"><polygon fill="#000000" points="8,8 32,32 56,8   "/><path fill="#000000" d="M14.601,14.601L32,32l18.327-18.327C39.45,11.758,25.787,15.851,14.601,14.601z"/><polygon fill="#000000" points="31,31 30,56 30.005,56.197 22,61 42,61 34.03,56.218 33,31   "/><path d="M32,33c-0.256,0-0.512-0.098-0.707-0.293l-24-24c-0.286-0.286-0.372-0.716-0.217-1.09C7.23,7.243,7.596,7,8,7h29v2H10.414    L32,30.586L53.586,9H43V7h13c0.404,0,0.77,0.243,0.924,0.617c0.155,0.374,0.069,0.804-0.217,1.09l-24,24    C32.512,32.902,32.256,33,32,33z"/><path d="M32,33c-0.256,0-0.512-0.098-0.707-0.293l-24-24c-0.286-0.286-0.372-0.716-0.217-1.09C7.23,7.243,7.596,7,8,7h48    c0.404,0,0.77,0.243,0.924,0.617c0.155,0.374,0.069,0.804-0.217,1.09l-24,24C32.512,32.902,32.256,33,32,33z M10.414,9L32,30.586    L53.586,9H10.414z"/><rect x="39" y="7" width="2" height="2"/><rect x="30" y="60" width="2" height="2"/><g><path d="M21.689,15.859c-2.606,0-5.248-0.236-7.926-0.888l0.473-1.943c5.961,1.449,11.633,0.735,17.638-0.021     c5.919-0.746,12.04-1.517,18.362,0.021l-0.473,1.943c-5.962-1.451-11.634-0.734-17.64,0.021     C28.713,15.422,25.234,15.859,21.689,15.859z"/></g><path d="M42,62h-8v-2h4.39l-4.875-2.925c-0.289-0.173-0.471-0.48-0.484-0.816l-1.029-25.218l1.998-0.082l1.008,24.679l7.508,4.505    c0.386,0.231,0.569,0.691,0.449,1.124C42.844,61.7,42.449,62,42,62z"/><path d="M28,62h-6c-0.449,0-0.844-0.3-0.964-0.733c-0.12-0.433,0.063-0.893,0.449-1.124l7.531-4.519l0.984-24.664l1.998,0.08    l-1,25l0.006,0.133c0.009,0.359-0.177,0.696-0.485,0.882L25.61,60H28V62z"/><g><circle fill="#000000" cx="31" cy="22" r="3"/><path d="M31,26c-2.206,0-4-1.794-4-4s1.794-4,4-4s4,1.794,4,4S33.206,26,31,26z M31,20c-1.103,0-2,0.897-2,2s0.897,2,2,2     s2-0.897,2-2S32.103,20,31,20z"/></g><path d="M27.999,21c-0.2,0-0.401-0.06-0.577-0.184l-24-17c-0.45-0.319-0.557-0.943-0.238-1.395    c0.32-0.452,0.943-0.557,1.395-0.238l24,17c0.45,0.319,0.557,0.943,0.238,1.395C28.621,20.854,28.313,21,27.999,21z"/><rect x="39" y="18" width="2" height="2"/><rect x="35" y="16" width="2" height="2"/></g></g><g display="none"><g display="inline"><path fill="#000000" d="M42.515,60.143l-7.508-4.505l-1.008-24.679C33.978,30.423,33.536,30,33,30h-2    c-0.537,0-0.978,0.424-0.999,0.96l-0.984,24.664l-7.531,4.519c-0.386,0.231-0.569,0.691-0.449,1.124C21.156,61.7,21.551,62,22,62    h20c0.449,0,0.844-0.3,0.964-0.733C43.084,60.834,42.9,60.374,42.515,60.143z"/><polygon fill="#000000" points="8,8 32,32 56,8   "/><path fill="#000000" d="M14.477,14.477L32,32l18.165-18.165C38.888,11.472,25.911,16.185,14.477,14.477z"/><path fill="#000000" d="M27.999,21c-0.2,0-0.401-0.06-0.577-0.184l-24-17c-0.45-0.319-0.557-0.943-0.238-1.395    c0.32-0.452,0.943-0.557,1.395-0.238l24,17c0.45,0.319,0.557,0.943,0.238,1.395C28.621,20.854,28.312,21,27.999,21z"/><rect x="39" y="17" fill="#000000" width="2" height="2"/><rect x="35" y="15" fill="#000000" width="2" height="2"/><path fill="#000000" d="M32,33c-0.256,0-0.512-0.098-0.707-0.293l-24-24c-0.286-0.286-0.372-0.716-0.217-1.09    C7.23,7.243,7.596,7,8,7h48c0.404,0,0.77,0.243,0.924,0.617c0.155,0.374,0.069,0.804-0.217,1.09l-24,24    C32.512,32.902,32.256,33,32,33z M10.414,9L32,30.586L53.586,9H10.414z"/><path fill="#000000" d="M31,18c-2.206,0-4,1.794-4,4s1.794,4,4,4s4-1.794,4-4S33.206,18,31,18z"/></g></g><g><g><path d="M32,33c-0.256,0-0.512-0.098-0.707-0.293l-24-24c-0.286-0.286-0.372-0.716-0.217-1.09C7.23,7.243,7.596,7,8,7h29v2H10.414    L32,30.586L53.586,9H43V7h13c0.404,0,0.77,0.243,0.924,0.617c0.155,0.374,0.069,0.804-0.217,1.09l-24,24    C32.512,32.902,32.256,33,32,33z"/><rect x="39" y="7" width="2" height="2"/><rect x="30" y="60" width="2" height="2"/><g><path d="M21.689,15.859c-2.606,0-5.248-0.236-7.926-0.888l0.473-1.943c5.961,1.449,11.633,0.735,17.638-0.021     c5.919-0.746,12.04-1.517,18.362,0.021l-0.473,1.943c-5.962-1.451-11.634-0.734-17.64,0.021     C28.713,15.422,25.234,15.859,21.689,15.859z"/></g><path d="M42,62h-8v-2h4.39l-4.875-2.925c-0.289-0.173-0.471-0.48-0.484-0.816l-1.029-25.218l1.998-0.082l1.008,24.679l7.508,4.505    c0.386,0.231,0.569,0.691,0.449,1.124C42.844,61.7,42.449,62,42,62z"/><path d="M28,62h-6c-0.449,0-0.844-0.3-0.964-0.733c-0.12-0.433,0.063-0.893,0.449-1.124l7.531-4.519l0.984-24.664l1.998,0.08    l-1,25l0.006,0.133c0.009,0.359-0.177,0.696-0.485,0.882L25.61,60H28V62z"/><path d="M31,26c-2.206,0-4-1.794-4-4s1.794-4,4-4s4,1.794,4,4S33.206,26,31,26z M31,20c-1.103,0-2,0.897-2,2s0.897,2,2,2    s2-0.897,2-2S32.103,20,31,20z"/><path d="M27.999,21c-0.2,0-0.401-0.06-0.577-0.184l-24-17c-0.45-0.319-0.557-0.943-0.238-1.395    c0.32-0.452,0.943-0.557,1.395-0.238l24,17c0.45,0.319,0.557,0.943,0.238,1.395C28.621,20.854,28.312,21,27.999,21z"/><rect x="39" y="18" width="2" height="2"/><rect x="35" y="16" width="2" height="2"/></g></g><g display="none"><g display="inline"><polyline fill="none" stroke="#000000" stroke-width="2" stroke-linejoin="round" stroke-miterlimit="10" points="43,8 56,8     32,32 8,8 37,8   "/><line fill="none" stroke="#000000" stroke-width="2" stroke-linejoin="round" stroke-miterlimit="10" x1="39" y1="8" x2="41" y2="8"/><line fill="none" stroke="#000000" stroke-width="2" stroke-linejoin="round" stroke-miterlimit="10" x1="32" y1="61" x2="30" y2="61"/><g><path fill="none" stroke="#000000" stroke-width="2" stroke-linejoin="round" stroke-miterlimit="10" d="M14,14     c12.282,2.987,23.718-2.987,36,0"/></g><polyline fill="none" stroke="#000000" stroke-width="2" stroke-linejoin="round" stroke-miterlimit="10" points="33,31     34.03,56.218 42,61 34,61   "/><polyline fill="none" stroke="#000000" stroke-width="2" stroke-linejoin="round" stroke-miterlimit="10" points="31,31 30,56     30.005,56.197 22,61 28,61   "/><circle fill="none" stroke="#000000" stroke-width="2" stroke-linejoin="round" stroke-miterlimit="10" cx="31" cy="22" r="3"/><line fill="none" stroke="#000000" stroke-width="2" stroke-linecap="round" stroke-linejoin="round" stroke-miterlimit="10" x1="28" y1="20" x2="4" y2="3"/><line fill="none" stroke="#000000" stroke-width="2" stroke-linejoin="round" stroke-miterlimit="10" x1="39" y1="19" x2="41" y2="19"/><line fill="none" stroke="#000000" stroke-width="2" stroke-linejoin="round" stroke-miterlimit="10" x1="35" y1="17" x2="37" y2="17"/></g></g><text x="0" y="79" fill="#000000" font-size="5px" font-weight="bold" font-family="'Helvetica Neue', Helvetica, Arial-Unicode, Arial, Sans-serif">Created by Petai Jantrapoon</text><text x="0" y="84" fill="#000000" font-size="5px" font-weight="bold" font-family="'Helvetica Neue', Helvetica, Arial-Unicode, Arial, Sans-serif">from the Noun Project</text></svg>