<svg xmlns:dc="http://purl.org/dc/elements/1.1/" xmlns:cc="http://creativecommons.org/ns#" xmlns:rdf="http://www.w3.org/1999/02/22-rdf-syntax-ns#" xmlns:svg="http://www.w3.org/2000/svg" xmlns="http://www.w3.org/2000/svg" xmlns:sodipodi="http://sodipodi.sourceforge.net/DTD/sodipodi-0.dtd" xmlns:inkscape="http://www.inkscape.org/namespaces/inkscape" version="1.1" x="0px" y="0px" viewBox="0 0 100 125"><g transform="translate(0,-952.36218)"><path style="text-indent:0;text-transform:none;direction:ltr;block-progression:tb;baseline-shift:baseline;color:#000000;enable-background:accumulate;" d="m 50,962.36206 c -14.7813,0 -27,11.08748 -27,27 0,5.76252 1.7427,10.15967 4.2188,14.56254 l 21.0312,37.4062 a 2.0002,2.0002 0 0 0 3.5,0 l 21.0312,-37.4062 C 75.2575,999.52162 77,995.12453 77,989.36206 c 0,-15.91252 -12.2187,-27 -27,-27 z m 0,4 c 12.8329,0 23,9.08912 23,23 0,4.98613 -1.3958,8.46329 -3.7188,12.59384 L 50,1036.2371 30.7188,1001.9559 C 28.3959,997.82538 27,994.34814 27,989.36206 c 0,-13.91088 10.1671,-23 23,-23 z m 0,9 c -7.7083,0 -14,6.29171 -14,14 0,7.7082 6.2917,14.00004 14,14.00004 7.7083,0 14,-6.29184 14,-14.00004 0,-7.70829 -6.2917,-14 -14,-14 z m 0,4 c 5.5465,0 10,4.45349 10,10 0,5.5464 -4.4535,10 -10,10 -5.5465,0 -10,-4.4536 -10,-10 0,-5.54651 4.4535,-10 10,-10 z" fill="#000000" fill-opacity="1" stroke="none" marker="none" visibility="visible" display="inline" overflow="visible"/></g><text x="0" y="115" fill="#000000" font-size="5px" font-weight="bold" font-family="'Helvetica Neue', Helvetica, Arial-Unicode, Arial, Sans-serif">Created by Aybige</text><text x="0" y="120" fill="#000000" font-size="5px" font-weight="bold" font-family="'Helvetica Neue', Helvetica, Arial-Unicode, Arial, Sans-serif">from the Noun Project</text></svg>