<svg xmlns="http://www.w3.org/2000/svg" xmlns:xlink="http://www.w3.org/1999/xlink" xmlns:sketch="http://www.bohemiancoding.com/sketch/ns" viewBox="0 0 100 125" version="1.1" x="0px" y="0px"><title>american-breakfast</title><desc>Created with Sketch.</desc><g stroke="none" stroke-width="1" fill="none" fill-rule="evenodd" sketch:type="MSPage"><g sketch:type="MSArtboardGroup" fill="#000000"><path d="M50,89 C31.2223333,89 16,73.7776667 16,55 C16,38.9296667 27.15,25.4653333 42.1353333,21.916 L40.7693333,27.013 C40.341,28.6123333 41.291,30.2576667 42.891,30.6863333 L55.1816667,33.9796667 L54.7693333,35.5183333 C54.341,37.1173333 55.291,38.763 56.891,39.1916667 L72.346,43.3326667 C73.9443333,43.761 75.5913333,42.8116667 76.02,41.2123333 L77.6336667,35.1896667 C81.6396667,40.768 84,47.608 84,55 C84,73.7776667 68.7776667,89 50,89 L50,89 Z M42.7013333,27.5306667 L44.324,21.4743333 L44.89,19.3626667 L45.2896667,17.8706667 C45.3003333,17.8313333 45.2996667,17.8316667 45.5746667,17.6996667 C45.575,17.6996667 45.575,17.6996667 45.5753333,17.6993333 C46.3333333,17.3356667 46.7216667,17.0083333 46.927,16.2423333 C47.132,15.4776667 46.9603333,15.0006667 46.4876667,14.3036667 C46.4873333,14.3033333 46.4873333,14.3033333 46.487,14.303 C46.3146667,14.049 46.3143333,14.0473333 46.325,14.007 L46.8426667,12.075 C46.9853333,11.5426667 47.5353333,11.2253333 48.0673333,11.368 L63.5223333,15.509 C64.0556667,15.652 64.3723333,16.2 64.2293333,16.7336667 L63.8173333,18.2713333 L62.585,17.9413333 C60.9866667,17.513 59.3393333,18.4626667 58.911,20.0623333 L58.8983333,20.1093333 L58.3933333,21.9943333 C58.3886667,22.011 58.387,22.026 58.3826667,22.0426667 C58.1986667,22.7773333 58.3703333,23.2503333 58.832,23.931 L58.8326667,23.9316667 C59.0056667,24.1866667 59.0063333,24.1883333 58.995,24.2296667 C58.9843333,24.2696667 58.9846667,24.2696667 58.7096667,24.4016667 C58.7093333,24.4016667 58.7093333,24.4016667 58.709,24.402 C57.951,24.766 57.563,25.0926667 57.358,25.858 L55.6993333,32.048 L43.4086667,28.7546667 C42.8756667,28.6116667 42.5586667,28.063 42.7013333,27.5306667 L42.7013333,27.5306667 Z M77.5223333,24.014 C78.0556667,24.157 78.3723333,24.7053333 78.2293333,25.2386667 L77.7116667,27.1706667 C77.7006667,27.2116667 77.6986667,27.2133333 77.4216667,27.3476667 C77.4213333,27.348 77.4213333,27.348 77.421,27.348 C76.6636667,27.7156667 76.2773333,28.0423333 76.0726667,28.8056667 C75.8976667,29.459 76,29.9033333 76.329,30.4516667 C76.3846667,30.545 76.4453333,30.6403333 76.514,30.7413333 C76.5143333,30.7416667 76.5143333,30.7416667 76.5146667,30.742 C76.687,30.9946667 76.687,30.9946667 76.6763333,31.0343333 L76.0946667,33.2056667 L74.088,40.6946667 C73.9456667,41.2263333 73.3956667,41.5433333 72.8633333,41.4006667 L57.4086667,37.2596667 C56.8756667,37.117 56.5586667,36.568 56.7013333,36.0356667 L57.1136667,34.4973333 L57.6313333,32.5656667 L59.2896667,26.3756667 C59.3003333,26.3366667 59.2996667,26.337 59.5746667,26.205 C59.575,26.2046667 59.575,26.2046667 59.5753333,26.2046667 C60.3333333,25.8406667 60.7216667,25.5133333 60.927,24.7473333 C61.132,23.9826667 60.9603333,23.5056667 60.4876667,22.809 L60.487,22.808 C60.4186667,22.7073333 60.378,22.647 60.3536667,22.6076667 C60.3166667,22.5476667 60.3186667,22.5363333 60.325,22.512 L60.8223333,20.6563333 L60.8426667,20.58 C60.9853333,20.0476667 61.5353333,19.7303333 62.0673333,19.873 L62.2133333,19.912 L64.5153333,20.529 L77.5223333,24.014 Z M78.291,32.736 L78.6083333,31.552 C78.8133333,30.7866667 78.641,30.3096667 78.1663333,29.6146667 C78.1663333,29.614 78.1663333,29.614 78.166,29.6136667 C77.994,29.362 77.994,29.362 78.0046667,29.3233333 C78.0153333,29.2833333 78.017,29.282 78.294,29.1473333 C78.2943333,29.1473333 78.2943333,29.1473333 78.2946667,29.147 C79.052,28.7796667 79.439,28.4523333 79.6436667,27.6883333 L80.1613333,25.7563333 C80.59,24.156 79.6403333,22.511 78.04,22.0823333 L65.7493333,18.789 L66.1613333,17.2513333 C66.59,15.6506667 65.6403333,14.006 64.04,13.5773333 L48.585,9.436 C46.9866667,9.00766667 45.3393333,9.95766667 44.911,11.5573333 L44.3933333,13.4893333 C44.1883333,14.253 44.36,14.73 44.832,15.426 C44.8323333,15.4263333 44.8323333,15.4263333 44.8326667,15.4266667 C45.0056667,15.6813333 45.0063333,15.6833333 44.995,15.7246667 C44.9843333,15.7646667 44.9846667,15.7646667 44.7096667,15.8966667 C44.7093333,15.8966667 44.7093333,15.8966667 44.709,15.897 C43.951,16.2606667 43.563,16.5876667 43.358,17.353 L42.719,19.737 C26.3273333,23.1036667 14,37.612 14,55 C14,74.8823333 30.1176667,91 50,91 C69.8823333,91 86,74.8823333 86,55 C86,46.5946667 83.119,38.8623333 78.291,32.736 L78.291,32.736 Z M47.3054667,77.8977667 C47.3058,77.8974333 47.2958,77.8974333 47.2961333,77.8971 C48.5228,77.1887667 49.2164667,76.4667667 50.5411333,74.7834333 C51.7141333,73.2927667 52.2784667,72.7067667 53.2168,72.1651 C53.2171333,72.1647667 53.2158,72.1647667 53.2161333,72.1647667 C54.1278,71.6384333 55.1074667,71.3084333 56.1034667,71.1391 C56.7688,71.0261 57.3414667,70.9987667 57.7638,71.0184333 C57.7994667,71.0201 57.8198,71.0214333 57.8238,71.0217667 L57.8734667,71.0261 L57.9231333,71.0254333 C59.2374667,71.0087667 59.9371333,69.8094333 59.2764667,68.6651 L57.6941333,66.0667667 C57.2541333,65.3044333 56.3334667,64.7397667 55.3334667,64.7021 L55.3334667,64.6991 C55.3334667,64.6964333 55.3371333,64.6934333 55.2738,64.6904333 C54.7164667,64.6644333 54.0434667,64.6984333 53.2268,64.8371 C52.0091333,65.0441 50.8254667,65.4494333 49.6944667,66.1024333 C49.6941333,66.1027667 49.7041333,66.1027667 49.7038,66.1027667 C48.4771333,66.8111 47.7834667,67.5331 46.4591333,69.2164333 C45.2858,70.7074333 44.7214667,71.2931 43.7834667,71.8351 C43.7831333,71.8351 43.7841333,71.8351 43.7838,71.8354333 C42.8721333,72.3614333 41.8924667,72.6917667 40.8964667,72.8607667 C40.2311333,72.9741 39.6584667,73.0011 39.2361333,72.9817667 C39.2004667,72.9801 39.1804667,72.9787667 39.1761333,72.9781 L39.1264667,72.9737667 L39.0768,72.9744333 C37.7628,72.9911 37.0628,74.1904333 37.7234667,75.3347667 L39.3058,77.9331 C39.7458,78.6954333 40.6668,79.2604333 41.6668,79.2977667 L41.6668,79.3007667 C41.6668,79.3034333 41.6628,79.3067667 41.7261333,79.3097667 C42.2834667,79.3354333 42.9568,79.3014333 43.7731333,79.1627667 C44.9911333,78.9557667 46.1744667,78.5504333 47.3054667,77.8977667 Z M41.7364667,77.3117667 C41.7008,77.3101 41.6804667,77.3231 41.6764667,77.3227667 L41.6358,77.3334333 L41.5951333,77.3334333 C41.3984667,77.3334333 41.0541333,77.1177667 40.9558,76.9474333 L39.8271333,74.9851 C40.2474667,74.9697667 40.7161333,74.9237667 41.2321333,74.8361 C42.4501333,74.6294333 43.6541333,74.2221 44.7851333,73.5694333 C44.7854667,73.5691 44.7854667,73.5681 44.7858,73.5677667 C46.0128,72.8594333 46.7111333,72.1371 48.0358,70.4537667 C49.2088,68.9631 49.7758,68.3767667 50.7141333,67.8351 C50.7144667,67.8351 50.7144667,67.8347667 50.7148,67.8347667 C51.6264667,67.3084333 52.6068,66.9781 53.6028,66.8091 C54.2681333,66.6961 54.8411333,66.6687667 55.2634667,66.6881 C55.2991333,66.6897667 55.3194667,66.6771 55.3238,66.6774333 L55.3641333,66.6667667 L55.4048,66.6667667 C55.6014667,66.6667667 55.9458,66.8821 56.0441333,67.0524333 L57.1731333,69.0147667 C56.7524667,69.0301 56.2838,69.0797667 55.7678,69.1674333 C54.5501333,69.3744333 53.3461333,69.7797667 52.2151333,70.4324333 C52.2144667,70.4327667 52.2144667,70.4327667 52.2141333,70.4331 C50.9874667,71.1414333 50.2888,71.8634333 48.9641333,73.5467667 C47.7911333,75.0374333 47.2241333,75.6234333 46.2858,76.1651 C46.2854667,76.1651 46.2854667,76.1651 46.2851333,76.1654333 C45.3734667,76.6917667 44.3931333,77.0217667 43.3971333,77.1911 C42.7318,77.3041 42.1588,77.3314333 41.7364667,77.3117667 Z M63.6941667,73.0666667 C63.2541667,72.3043333 62.3331667,71.7396667 61.3331667,71.702 L61.3331667,71.6993333 C61.3331667,71.6963333 61.3371667,71.6933333 61.2738333,71.6903333 C60.7165,71.6646667 60.0431667,71.6983333 59.2268333,71.8373333 C58.0088333,72.044 56.8255,72.4496667 55.6945,73.1023333 C55.6941667,73.1026667 55.7041667,73.1026667 55.7038333,73.103 C54.4771667,73.811 53.7835,74.5333333 52.4588333,76.2166667 C51.2858333,77.7073333 50.7215,78.2933333 49.7835,78.835 C49.7828333,78.835 49.7841667,78.835 49.7838333,78.8353333 C48.8721667,79.3616667 47.8925,79.6916667 46.8965,79.861 C46.2311667,79.974 45.6585,80.0013333 45.2361667,79.9816667 C45.2005,79.98 45.1801667,79.9786667 45.1761667,79.9783333 L45.1265,79.974 L45.0768333,79.9746667 C43.7625,79.9913333 43.0628333,81.1903333 43.7235,82.3346667 L45.3058333,84.933 C45.7458333,85.6956667 46.6665,86.2603333 47.6665,86.298 L47.6665,86.3006667 C47.6665,86.3036667 47.6628333,86.3066667 47.7261667,86.3096667 C48.2835,86.3353333 48.9568333,86.3016667 49.7731667,86.1626667 C50.9908333,85.956 52.1745,85.5503333 53.3055,84.8976667 C53.3058333,84.8973333 53.2958333,84.8973333 53.2961667,84.897 C54.5228333,84.1886667 55.2165,83.4666667 56.5408333,81.7833333 C57.7141667,80.2926667 58.2785,79.7066667 59.2165,79.165 C59.2171667,79.165 59.2158333,79.165 59.2161667,79.1646667 C60.1278333,78.6383333 61.1075,78.3083333 62.1035,78.139 C62.7688333,78.026 63.3415,77.9986667 63.7638333,78.0183333 C63.7995,78.02 63.8198333,78.0213333 63.8238333,78.0216667 L63.8735,78.026 L63.9231667,78.0253333 C65.2375,78.0086667 65.9371667,76.8096667 65.2765,75.6653333 L63.6941667,73.0666667 Z M61.7678333,76.1673333 C60.5498333,76.3743333 59.3461667,76.7796667 58.2148333,77.4323333 L58.2141667,77.433 C56.9875,78.1413333 56.2888333,78.8633333 54.9641667,80.5466667 C53.7911667,82.0373333 53.2241667,82.6233333 52.2858333,83.165 L52.2851667,83.1653333 C51.3735,83.6916667 50.3931667,84.0216667 49.3971667,84.191 C48.7318333,84.304 48.1588333,84.3313333 47.7365,84.3116667 C47.7008333,84.31 47.6805,84.323 47.6761667,84.3226667 L47.6358333,84.3333333 L47.5951667,84.3333333 C47.3985,84.3333333 47.0541667,84.1176667 46.9558333,83.9476667 L45.8268333,81.985 C46.2475,81.9696667 46.7161667,81.924 47.2321667,81.8363333 C48.4498333,81.6293333 49.6538333,81.222 50.7848333,80.5693333 C50.7855,80.569 50.7855,80.568 50.7858333,80.568 C52.0125,79.8596667 52.7111667,79.137 54.0358333,77.4536667 C55.2088333,75.963 55.7758333,75.377 56.7141667,74.835 C56.7145,74.835 56.7145,74.8346667 56.7148333,74.8346667 C57.6265,74.3083333 58.6068333,73.9783333 59.6028333,73.809 C60.2681667,73.696 60.8411667,73.6686667 61.2635,73.6883333 C61.2991667,73.69 61.3195,73.677 61.3238333,73.6773333 L61.3641667,73.6666667 L61.4048333,73.6666667 C61.6015,73.6666667 61.9458333,73.8823333 62.0441667,74.0523333 L63.1731667,76.015 C62.7525,76.0303333 62.2838333,76.0796667 61.7678333,76.1673333 Z M33.0749,52.9883667 C34.6949,54.8397 38.8699,57.2743667 41.1649,57.6733667 C43.6425667,58.1043667 46.7142333,57.5390333 48.6102333,56.1697 C49.8235667,55.2933667 50.4202333,53.8033667 50.9489,51.2387 C50.9955667,51.0120333 51.0415667,50.7793667 51.0989,50.4827 C51.1115667,50.4173667 51.2099,49.9037 51.2382333,49.7573667 C51.3709,49.0747 51.4659,48.6377 51.5695667,48.2573667 C51.6945667,47.7983667 51.6865667,47.8233667 52.2045667,46.3000333 C52.3869,45.7643667 52.5122333,45.3793667 52.6279,44.9913667 C53.2489,42.9070333 53.3539,41.3937 52.6832333,40.1137 C51.9755667,38.7627 50.5569,38.0513667 48.2185667,37.4587 C47.9362333,37.3870333 47.6519,37.3197 47.2715667,37.2327 C47.1702333,37.2093667 46.8252333,37.1310333 46.8219,37.1300333 C46.6482333,37.0907 46.5192333,37.0610333 46.3962333,37.0320333 C45.9185667,36.9197 45.5835667,36.8303667 45.3139,36.7403667 C44.7842333,36.5637 44.4115667,36.3810333 42.7869,35.5347 C42.6112333,35.4433667 42.4672333,35.3687 42.3282333,35.2977 C40.2169,34.2157 39.0252333,33.8000333 37.9305667,34.0737 C37.3345667,34.2223667 36.7825667,34.6177 36.2152333,35.2173667 C35.6889,35.7740333 35.1555667,36.5030333 34.5689,37.4253667 C34.1895667,38.0213667 33.1295667,39.8213667 32.9952333,40.0227 C32.8975667,40.1693667 32.6992333,40.3847 32.3822333,40.6867 C32.1992333,40.8607 31.4539,41.5417 31.3172333,41.6693667 C30.1932333,42.7190333 29.5409,43.4923667 29.2042333,44.3700333 C29.0355667,44.8097 28.9662333,45.2523667 29.0152333,45.6943667 C29.2235667,47.5677 31.1512333,50.7900333 33.0749,52.9883667 Z M31.0712333,45.0870333 C31.2645667,44.5833667 31.7735667,43.9800333 32.6825667,43.1310333 C32.8052333,43.0163667 33.5602333,42.3263667 33.7609,42.1353667 C34.1782333,41.7380333 34.4582333,41.4343667 34.6595667,41.1323667 C34.8315667,40.8737 35.9069,39.0480333 36.2562333,38.4987 C36.7805667,37.6747 37.2469,37.0373667 37.6685667,36.5913667 C37.9972333,36.2437 38.2665667,36.0510333 38.4155667,36.0137 C38.8282333,35.9107 39.8025667,36.2507 41.4162333,37.0777 C41.5505667,37.1463667 41.6909,37.2190333 41.8629,37.3087 C43.6222333,38.2250333 44.0022333,38.4113667 44.6812333,38.6377 C45.0212333,38.7510333 45.4065667,38.8537 45.9382333,38.9787 C45.7785667,38.9413667 47.3115667,39.2920333 47.7269,39.3973667 C49.5365667,39.8560333 50.5589,40.3687 50.9115667,41.0417 C51.2685667,41.7230333 51.1939,42.8000333 50.7112333,44.4203667 C50.6045667,44.7787 50.4859,45.1423667 50.3112333,45.6557 C50.2725667,45.7697 50.1405667,46.1550333 50.1309,46.1840333 C50.0592333,46.3940333 50.0052333,46.5537 49.9542333,46.7077 C49.8229,47.1040333 49.7222333,47.4290333 49.6399,47.7313667 C49.5199,48.1720333 49.4162333,48.6480333 49.2749,49.3763667 C49.2459,49.5253667 49.1472333,50.0407 49.1349,50.1040333 C49.0792333,50.3930333 49.0349,50.6177 48.9902333,50.8347 C48.5622333,52.9097 48.0962333,54.0740333 47.4392333,54.5483667 C46.0085667,55.5813667 43.4822333,56.0463667 41.5075667,55.7030333 C39.6749,55.3843667 35.9055667,53.1863667 34.5799,51.6713667 C32.9059,49.7583667 31.1539,46.8293667 31.0032333,45.4733667 C30.9915667,45.3693667 31.0112333,45.2430333 31.0712333,45.0870333 Z M42,52 C45.3136667,52 48,49.3136667 48,46 C48,42.6863333 45.3136667,40 42,40 C38.6863333,40 36,42.6863333 36,46 C36,49.3136667 38.6863333,52 42,52 Z M42,42 C44.209,42 46,43.791 46,46 C46,48.209 44.209,50 42,50 C39.791,50 38,48.209 38,46 C38,43.791 39.791,42 42,42 Z M71.0591,47.8247667 C69.4391,45.9734333 65.2641,43.5387667 62.9691,43.1397667 C60.4914333,42.7087667 57.4197667,43.2741 55.5237667,44.6434333 C54.3104333,45.5197667 53.7137667,47.0097667 53.1851,49.5744333 C53.1384333,49.8011 53.0924333,50.0337667 53.0351,50.3304333 C53.0224333,50.3957667 52.9241,50.9094333 52.8957667,51.0557667 C52.7631,51.7384333 52.6681,52.1754333 52.5644333,52.5557667 C52.4394333,53.0147667 52.4474333,52.9897667 51.9294333,54.5131 C51.7471,55.0487667 51.6217667,55.4337667 51.5061,55.8217667 C50.8851,57.9061 50.7801,59.4194333 51.4507667,60.6994333 C52.1584333,62.0504333 53.5771,62.7617667 55.9154333,63.3544333 C56.1977667,63.4261 56.4821,63.4934333 56.8624333,63.5804333 C56.9637667,63.6037667 57.3087667,63.6821 57.3117667,63.6827667 C57.4857667,63.7224333 57.6147667,63.7524333 57.7377667,63.7811 C58.2154333,63.8934333 58.5504333,63.9827667 58.8201,64.0727667 C59.3497667,64.2494333 59.7224333,64.4321 61.3471,65.2784333 C61.5227667,65.3697667 61.6667667,65.4444333 61.8057667,65.5154333 C63.9171,66.5974333 65.1087667,67.0131 66.2034333,66.7394333 C66.7994333,66.5907667 67.3514333,66.1954333 67.9187667,65.5957667 C68.4451,65.0391 68.9784333,64.3101 69.5651,63.3877667 C69.9444333,62.7917667 71.0044333,60.9917667 71.1387667,60.7904333 C71.2364333,60.6437667 71.4347667,60.4284333 71.7517667,60.1264333 C71.9347667,59.9524333 72.6801,59.2714333 72.8167667,59.1437667 C73.9407667,58.0941 74.5931,57.3207667 74.9297667,56.4431 C75.0984333,56.0037667 75.1677667,55.5607667 75.1187667,55.1187667 C74.9104333,53.2454333 72.9827667,50.0231 71.0591,47.8247667 Z M73.0627667,55.7261 C72.8694333,56.2297667 72.3604333,56.8331 71.4514333,57.6821 C71.3287667,57.7967667 70.5737667,58.4867667 70.3731,58.6777667 C69.9557667,59.0751 69.6757667,59.3791 69.4744333,59.6807667 C69.3024333,59.9394333 68.2271,61.7651 67.8777667,62.3144333 C67.3534333,63.1384333 66.8871,63.7757667 66.4654333,64.2217667 C66.1367667,64.5694333 65.8674333,64.7621 65.7184333,64.7994333 C65.3057667,64.9024333 64.3314333,64.5624333 62.7177667,63.7354333 C62.5834333,63.6667667 62.4431,63.5941 62.2711,63.5044333 C60.5114333,62.5881 60.1317667,62.4017667 59.4527667,62.1754333 C59.1127667,62.0621 58.7274333,61.9594333 58.1957667,61.8344333 C58.3554333,61.8717667 56.8224333,61.5211 56.4071,61.4157667 C54.5974333,60.9571 53.5751,60.4444333 53.2224333,59.7714333 C52.8654333,59.0901 52.9401,58.0131 53.4227667,56.3927667 C53.5294333,56.0344333 53.6481,55.6707667 53.8227667,55.1574333 C53.8614333,55.0434333 53.9934333,54.6581 54.0031,54.6291 C54.0747667,54.4191 54.1287667,54.2594333 54.1797667,54.1054333 C54.3111,53.7091 54.4117667,53.3841 54.4941,53.0817667 C54.6141,52.6411 54.7177667,52.1651 54.8591,51.4367667 C54.8881,51.2877667 54.9867667,50.7721 54.9991,50.7091 C55.0547667,50.4201 55.0991,50.1954333 55.1437667,49.9784333 C55.5714333,47.9034333 56.0377667,46.7391 56.6947667,46.2647667 C58.1254333,45.2314333 60.6517667,44.7667667 62.6264333,45.1101 C64.4591,45.4287667 68.2284333,47.6267667 69.5541,49.1417667 C71.2281,51.0547667 72.9801,53.9837667 73.1307667,55.3397667 C73.1424333,55.4437667 73.1227667,55.5701 73.0627667,55.7261 Z M63,49 C59.6863333,49 57,51.6863333 57,55 C57,58.3136667 59.6863333,61 63,61 C66.3136667,61 69,58.3136667 69,55 C69,51.6863333 66.3136667,49 63,49 Z M63,59 C60.791,59 59,57.209 59,55 C59,52.791 60.791,51 63,51 C65.209,51 67,52.791 67,55 C67,57.209 65.209,59 63,59 Z M36.6579667,61.4153 L29.5846333,54.3419667 C28.4146333,53.1723 26.5143,53.1723 25.3433,54.3433 C24.1729667,55.5133 24.1713,57.4139667 25.3419667,58.5846333 L32.4153,65.6579667 C33.5853,66.8279667 35.4859667,66.8279667 36.6569667,65.6569667 C37.8273,64.4866333 37.8286333,62.5859667 36.6579667,61.4153 Z M35.2426333,64.2426333 C34.8526333,64.6326333 34.2183,64.6326333 33.8296333,64.2436333 L26.7563,57.1706333 C26.3669667,56.7813 26.3676333,56.1469667 26.7573,55.7573 C27.1473,55.3673 27.7816333,55.3673 28.1703,55.7563 L35.2436333,62.8296333 C35.6329667,63.2186333 35.6323,63.8529667 35.2426333,64.2426333 Z M27.5846333,63.3419667 C26.4146333,62.1723 24.5143,62.1723 23.3433,63.3433 C22.1729667,64.5133 22.1713,66.4139667 23.3419667,67.5846333 L30.4153,74.6579667 C31.5853,75.8279667 33.4859667,75.8279667 34.6569667,74.6569667 C35.8273,73.4866333 35.8286333,71.5859667 34.6579667,70.4153 L27.5846333,63.3419667 Z M33.2426333,73.2426333 C32.8526333,73.6326333 32.2183,73.6326333 31.8296333,73.2436333 L24.7563,66.1703 C24.3669667,65.7813 24.3676333,65.1469667 24.7573,64.7573 C25.1473,64.3673 25.7816333,64.3673 26.1703,64.7563 L33.2436333,71.8296333 C33.6329667,72.2186333 33.6323,72.8529667 33.2426333,73.2426333 Z" sketch:type="MSShapeGroup"/></g></g><text x="0" y="115" fill="#000000" font-size="5px" font-weight="bold" font-family="'Helvetica Neue', Helvetica, Arial-Unicode, Arial, Sans-serif">Created by David Ly</text><text x="0" y="120" fill="#000000" font-size="5px" font-weight="bold" font-family="'Helvetica Neue', Helvetica, Arial-Unicode, Arial, Sans-serif">from the Noun Project</text></svg>