<svg xmlns="http://www.w3.org/2000/svg" xmlns:xlink="http://www.w3.org/1999/xlink" version="1.1" x="0px" y="0px" viewBox="0 0 100 125" style="enable-background:new 0 0 100 100;" xml:space="preserve"><g><path d="M84.9,50.8L84.9,50.8c-0.1-0.1-0.2-0.2-0.2-0.2c0,0-0.1-0.1-0.1-0.1c-6.2-6-17-5.8-24.2-5.7l-1.4,0c-1,0-2-0.4-2.8-1.1   C55.5,43,55.1,42,55.1,41l0-1.4c0.1-7.2,0.2-18.1-5.7-24.2c0,0-0.1-0.1-0.1-0.1l-0.1-0.1c0,0-0.1-0.1-0.1-0.1c0,0-0.1-0.1-0.1-0.1   c-3-2.8-9-5-11.7-2.3c-0.9,0.9-0.7,2.2-0.6,2.6c0,0.4-0.2,0.6-0.3,0.7c-0.2,0.2-0.6,0.3-0.9,0.2c-3-1-5.3-0.8-6.5,0.5   c-1,0.9-0.8,2.5-0.6,3.5c0.1,0.4-0.2,0.7-0.3,0.8c-0.1,0.1-0.4,0.3-0.7,0.2c-2.7-0.7-4.5-0.5-5.6,0.6c-1.1,1.1-1.3,2.9-0.5,5.6   c0.1,0.4-0.1,0.6-0.2,0.7c-0.1,0.1-0.4,0.3-0.8,0.3c-1.1-0.2-2.6-0.3-3.5,0.6c-1.3,1.3-1.4,3.5-0.5,6.5c0.1,0.3,0,0.6-0.2,0.9   c-0.1,0.1-0.3,0.3-0.7,0.3c-0.4-0.1-1.8-0.2-2.6,0.6c-2.8,2.8-0.4,8.8,2.4,11.8l0,0c0,0,0.1,0.1,0.1,0.1c0,0,0.1,0.1,0.1,0.1   c0,0,0,0,0.1,0.1c6.2,6,17,5.8,24.2,5.7l1.4,0c1.1,0,2,0.4,2.8,1.1c0.7,0.7,1.2,1.7,1.1,2.8l0,1.4c-0.1,7.2-0.2,18.1,5.7,24.2   c0,0,0.1,0.1,0.1,0.1l0.9-0.8l0,0l-0.8,0.9l0.9-0.9h0l-0.8,0.9c0,0,0.1,0.1,0.1,0.1c2,1.9,5.5,3.5,8.3,3.5c1.3,0,2.5-0.4,3.4-1.2   c0.9-0.9,0.7-2.2,0.6-2.6c0-0.4,0.2-0.6,0.3-0.7c0.2-0.2,0.6-0.3,0.9-0.2c3,1,5.3,0.8,6.5-0.5c0.9-1,0.8-2.5,0.6-3.5   c-0.1-0.4,0.2-0.7,0.3-0.8c0.1-0.1,0.4-0.3,0.7-0.2c2.7,0.7,4.5,0.5,5.6-0.6c1.1-1.1,1.3-2.9,0.5-5.6c-0.1-0.4,0.1-0.6,0.2-0.7   c0.1-0.1,0.4-0.3,0.8-0.3c1.1,0.2,2.6,0.3,3.5-0.6c1.3-1.3,1.4-3.5,0.5-6.5c-0.1-0.3,0-0.6,0.2-0.9c0.1-0.1,0.3-0.3,0.7-0.3   c0.4,0.1,1.8,0.2,2.6-0.6C90,60,87.8,54,85,51C84.9,50.9,84.9,50.9,84.9,50.8z M85.6,60.9c-0.1,0-0.3,0-0.6,0   c-1.1-0.1-2.2,0.3-2.9,1.2c-0.7,0.9-1,2.1-0.6,3.2c0.6,1.9,0.7,3.5,0.2,4c0,0-0.3,0.2-1.4,0c-1.1-0.2-2.3,0.2-3,1   c-0.8,0.8-1,2-0.7,3c0.7,2.5,0.2,3.1,0.1,3.2c-0.1,0.1-0.7,0.6-3.2-0.1c-1.1-0.3-2.2,0-3,0.8c-0.8,0.8-1.2,1.9-1,3   c0.2,1.1,0,1.4,0.1,1.4c0,0,0,0,0,0c-0.5,0.5-2.1,0.5-4-0.1c-1.1-0.4-2.3-0.1-3.2,0.6c-0.9,0.7-1.3,1.8-1.2,2.9c0,0.4,0,0.6,0,0.6   c-1.4,1.2-5.8-0.1-8.3-2.5c0,0,0,0,0,0c0,0,0,0,0,0l0,0c0,0,0,0-0.1-0.1c-5.3-5.4-5.2-15.7-5.1-22.5l0-1.4c0-1.7-0.6-3.3-1.9-4.6   c-1.2-1.2-2.8-1.9-4.5-1.9c0,0,0,0-0.1,0l-1.4,0c-6.8,0.1-17.1,0.2-22.5-5.1c0,0,0,0-0.1-0.1l0,0c0,0,0,0,0,0c0,0,0,0,0,0   c-2.4-2.5-3.7-7-2.5-8.3c0.1,0,0.3,0,0.6,0c1.1,0.1,2.2-0.3,2.9-1.2c0.7-0.9,1-2.1,0.6-3.2c-0.6-1.9-0.7-3.5-0.2-4   c0,0,0.3-0.2,1.4,0c1.1,0.2,2.3-0.2,3-1c0.8-0.8,1-2,0.7-3c-0.7-2.5-0.2-3.1-0.1-3.2c0.1-0.1,0.7-0.6,3.2,0.1c1.1,0.3,2.2,0,3-0.8   c0.8-0.8,1.2-1.9,1-3c-0.2-1.1,0-1.4-0.1-1.4c0.5-0.5,2.1-0.5,4,0.1c1.1,0.4,2.3,0.1,3.2-0.6c0.9-0.7,1.3-1.8,1.2-2.9   c0-0.4,0-0.6,0-0.6c1.4-1.2,5.8,0.1,8.3,2.5c0,0,0,0,0,0c0,0,0,0,0,0c0,0,0,0,0,0c0,0,0,0,0,0.1c5.3,5.4,5.2,15.7,5.1,22.5l0,1.4   c0,1.7,0.6,3.3,1.9,4.6c1.2,1.2,2.8,1.9,4.6,1.9l1.4,0c6.8-0.1,17.1-0.2,22.5,5.1c0,0,0,0,0.1,0.1l0,0l0,0c0,0,0,0,0,0   C85.5,55.1,86.8,59.5,85.6,60.9z"/><path d="M62.1,53.3c-1.5-1.5-3.5-2.5-5.6-2.9l-3.3-0.6c-1.5-0.3-2.6-1.4-2.8-2.9l-0.4-2.7c-0.4-2.3-1.4-4.4-3-6l-4.1-4.1   c-0.5-0.5-1.3-0.5-1.7,0c-0.5,0.5-0.5,1.3,0,1.7l4.1,4.1c1.2,1.2,2,2.8,2.3,4.6l0.4,2.7c0,0.3,0.1,0.5,0.2,0.8   c-0.2-0.1-0.5-0.2-0.8-0.2L44,47.2c-1.7-0.3-3.2-1.1-4.3-2.3l-3.8-3.8c-0.5-0.5-1.3-0.5-1.7,0c-0.5,0.5-0.5,1.3,0,1.7l3.8,3.8   c1.5,1.5,3.5,2.5,5.6,2.9l3.3,0.6c1.5,0.3,2.6,1.4,2.8,2.9l0.4,2.7c0.4,2.3,1.4,4.4,3,6l4.1,4.1c0.2,0.2,0.6,0.4,0.9,0.4   s0.6-0.1,0.9-0.4c0.5-0.5,0.5-1.3,0-1.7l-4.1-4.1c-1.2-1.2-2-2.8-2.3-4.6l-0.4-2.7c0-0.3-0.1-0.5-0.2-0.8c0.2,0.1,0.5,0.2,0.8,0.2   l3.3,0.6c1.7,0.3,3.2,1.1,4.3,2.3l3.8,3.8c0.2,0.2,0.6,0.4,0.9,0.4s0.6-0.1,0.9-0.4c0.5-0.5,0.5-1.3,0-1.7L62.1,53.3z"/></g><text x="0" y="115" fill="#000000" font-size="5px" font-weight="bold" font-family="'Helvetica Neue', Helvetica, Arial-Unicode, Arial, Sans-serif">Created by mikicon</text><text x="0" y="120" fill="#000000" font-size="5px" font-weight="bold" font-family="'Helvetica Neue', Helvetica, Arial-Unicode, Arial, Sans-serif">from the Noun Project</text></svg>